<svg xmlns="http://www.w3.org/2000/svg" width="1200" height="750" viewBox="0 0 1200 750" role="img" aria-labelledby="title desc">
  <title id="title">Belajar web development</title>
  <desc id="desc">Ilustrasi geometris laptop dengan kode HTML, CSS, dan JavaScript.</desc>
  <defs><linearGradient id="bg" x1="0" x2="1" y1="0" y2="1"><stop stop-color="#132d58"/><stop offset="1" stop-color="#07142f"/></linearGradient><linearGradient id="screen" x1="0" x2="1"><stop stop-color="#0b1b38"/><stop offset="1" stop-color="#10264b"/></linearGradient></defs>
  <rect width="1200" height="750" fill="url(#bg)"/><circle cx="1020" cy="110" r="180" fill="#1e5eff" opacity=".18"/><circle cx="150" cy="650" r="220" fill="#56c2ff" opacity=".08"/>
  <rect x="260" y="150" width="680" height="420" rx="28" fill="#050d1d" stroke="#355078" stroke-width="4"/><rect x="285" y="178" width="630" height="350" rx="16" fill="url(#screen)"/>
  <circle cx="312" cy="202" r="8" fill="#ff6a69"/><circle cx="338" cy="202" r="8" fill="#ffc44f"/><circle cx="364" cy="202" r="8" fill="#44d28c"/>
  <g font-family="monospace" font-size="30" font-weight="700"><text x="345" y="290" fill="#ff79c6">&lt;main&gt;</text><text x="390" y="342" fill="#dce7f9">Belajar Web</text><text x="390" y="394" fill="#70d7ff">HTML • CSS • JS</text><text x="345" y="446" fill="#ff79c6">&lt;/main&gt;</text></g>
  <path d="M205 570h790l70 65c10 9 4 27-10 27H150c-14 0-20-18-10-27z" fill="#dbe7ff"/><path d="M495 590h210l26 35H469z" fill="#aabde1"/>
  <g font-family="Arial, sans-serif" font-weight="700"><rect x="135" y="215" width="125" height="125" rx="24" fill="#fff"/><text x="163" y="290" font-size="36" fill="#ef673f">&lt;/&gt;</text><rect x="925" y="315" width="125" height="125" rx="24" fill="#fff"/><text x="967" y="391" font-size="48" fill="#4775ef">#</text><rect x="850" y="530" width="125" height="125" rx="24" fill="#f8d94a"/><text x="886" y="607" font-size="38" fill="#171717">JS</text></g>
</svg>
